<mxfile host="app.diagrams.net" modified="2021-04-21T19:15:12.844Z" agent="5.0 (Macintosh; Intel Mac OS X 11_2_3) AppleWebKit/537.36 (KHTML, like Gecko) Chrome/89.0.4389.128 Safari/537.36" etag="7iwk2x4lAKZN-BrlZ5HI" version="14.6.5" type="github">
  <diagram id="aGT6zydpbfh8AbuC9Qst" name="Page-1">
    <mxGraphModel dx="3082" dy="-177" grid="0" gridSize="10" guides="1" tooltips="1" connect="1" arrows="1" fold="1" page="0" pageScale="1" pageWidth="827" pageHeight="1169" math="0" shadow="0">
      <root>
        <mxCell id="0" />
        <mxCell id="1" parent="0" />
        <mxCell id="n23SUfQy9NU79BF3vrwx-2" style="rounded=0;orthogonalLoop=1;jettySize=auto;html=1;exitX=1;exitY=0.5;exitDx=0;exitDy=0;entryX=0;entryY=0.5;entryDx=0;entryDy=0;" edge="1" parent="1" source="n23SUfQy9NU79BF3vrwx-1" target="n23SUfQy9NU79BF3vrwx-5">
          <mxGeometry relative="1" as="geometry">
            <mxPoint x="-1611" y="1004" as="targetPoint" />
            <Array as="points">
              <mxPoint x="-1706" y="1005" />
            </Array>
          </mxGeometry>
        </mxCell>
        <mxCell id="n23SUfQy9NU79BF3vrwx-8" style="edgeStyle=none;rounded=0;orthogonalLoop=1;jettySize=auto;html=1;" edge="1" parent="1" source="n23SUfQy9NU79BF3vrwx-1" target="n23SUfQy9NU79BF3vrwx-6">
          <mxGeometry relative="1" as="geometry" />
        </mxCell>
        <mxCell id="n23SUfQy9NU79BF3vrwx-1" value="cashier/withdraw&lt;br&gt;main route" style="rounded=1;whiteSpace=wrap;html=1;" vertex="1" parent="1">
          <mxGeometry x="-1827" y="974" width="120" height="60" as="geometry" />
        </mxCell>
        <mxCell id="n23SUfQy9NU79BF3vrwx-5" value="withdraw/form" style="rounded=0;whiteSpace=wrap;html=1;" vertex="1" parent="1">
          <mxGeometry x="-1606" y="914" width="120" height="60" as="geometry" />
        </mxCell>
        <mxCell id="n23SUfQy9NU79BF3vrwx-6" value="withdraw/details" style="rounded=0;whiteSpace=wrap;html=1;" vertex="1" parent="1">
          <mxGeometry x="-1606" y="1017" width="120" height="60" as="geometry" />
        </mxCell>
      </root>
    </mxGraphModel>
  </diagram>
</mxfile>
